<svg xmlns="http://www.w3.org/2000/svg" xmlns:xlink="http://www.w3.org/1999/xlink" width="307.76" height="215.013" viewBox="0 0 307.76 215.013"><defs><style>.a{fill:url(#a);}.b{fill:url(#d);}.c{fill:#eb1e69;}.d{fill:#d1e8ff;}.e{fill:#fff;}.f{fill:none;opacity:0.1;}.g{fill:url(#e);}.h{fill:#ebebff;}.i{fill:url(#j);}.j{fill:url(#m);}.k{filter:url(#n);}.l{filter:url(#k);}.m{filter:url(#h);}.n{filter:url(#f);}.o{filter:url(#b);}</style><linearGradient id="a" x1="0.5" x2="0.5" y2="1" gradientUnits="objectBoundingBox"><stop offset="0" stop-color="#d1e8ff"/><stop offset="1" stop-color="#fff7fa"/></linearGradient><filter id="b" x="17.911" y="5.778" width="287.293" height="209.234" filterUnits="userSpaceOnUse"><feOffset input="SourceAlpha"/><feGaussianBlur stdDeviation="4" result="c"/><feFlood flood-opacity="0.161"/><feComposite operator="in" in2="c"/><feComposite in="SourceGraphic"/></filter><linearGradient id="d" x1="0.5" x2="0.5" y2="1.784" gradientUnits="objectBoundingBox"><stop offset="0" stop-color="#fdfdfd"/><stop offset="1" stop-color="#d1e8ff"/></linearGradient><linearGradient id="e" x1="1.625" y1="-0.701" x2="0.257" y2="0.728" gradientUnits="objectBoundingBox"><stop offset="0" stop-color="#d1e8ff"/><stop offset="1" stop-color="#fdf8fa"/></linearGradient><filter id="f" x="204.959" y="0" width="102.801" height="67.52" filterUnits="userSpaceOnUse"><feOffset input="SourceAlpha"/><feGaussianBlur stdDeviation="2" result="g"/><feFlood flood-opacity="0.161"/><feComposite operator="in" in2="g"/><feComposite in="SourceGraphic"/></filter><filter id="h" x="247.996" y="142.197" width="59.013" height="45.811" filterUnits="userSpaceOnUse"><feOffset input="SourceAlpha"/><feGaussianBlur stdDeviation="2" result="i"/><feFlood flood-opacity="0.161"/><feComposite operator="in" in2="i"/><feComposite in="SourceGraphic"/></filter><linearGradient id="j" x1="0.938" y1="0.928" x2="-0.878" y2="-0.522" gradientUnits="objectBoundingBox"><stop offset="0" stop-color="#fff8fb"/><stop offset="1" stop-color="#d1e8ff"/></linearGradient><filter id="k" x="0" y="123.285" width="105.512" height="67.65" filterUnits="userSpaceOnUse"><feOffset dy="3" input="SourceAlpha"/><feGaussianBlur stdDeviation="2" result="l"/><feFlood flood-opacity="0.161"/><feComposite operator="in" in2="l"/><feComposite in="SourceGraphic"/></filter><linearGradient id="m" x1="0.046" y1="0.036" x2="1.647" y2="1.571" gradientUnits="objectBoundingBox"><stop offset="0" stop-color="#fff4f8"/><stop offset="1" stop-color="#d1e8ff"/></linearGradient><filter id="n" x="1.478" y="32.118" width="60.081" height="57.719" filterUnits="userSpaceOnUse"><feOffset input="SourceAlpha"/><feGaussianBlur stdDeviation="2" result="o"/><feFlood flood-opacity="0.161"/><feComposite operator="in" in2="o"/><feComposite in="SourceGraphic"/></filter></defs><g transform="translate(4.151 4.459)"><g class="o" transform="matrix(1, 0, 0, 1, -4.15, -4.46)"><path class="a" d="M686.693,794.6V966.854a6.479,6.479,0,0,1-6.48,6.48H430.2a6.789,6.789,0,0,1-6.8-6.8V794.9a6.789,6.789,0,0,1,6.8-6.8H680.19A6.489,6.489,0,0,1,686.693,794.6Z" transform="translate(-393.49 -770.32)"/></g><path class="b" d="M686.693,794.6v10.219H423.4V794.6a6.5,6.5,0,0,1,6.48-6.5H680.19A6.489,6.489,0,0,1,686.693,794.6Z" transform="translate(-397.64 -774.781)"/><ellipse class="c" cx="3.014" cy="3.014" rx="3.014" ry="3.014" transform="translate(37.362 18.666)"/><path class="d" d="M528.513,811.6a3.014,3.014,0,1,0,3.014,3.014A3.012,3.012,0,0,0,528.513,811.6Z" transform="translate(-476.605 -792.956)"/><path class="d" d="M579.314,817.727a3.014,3.014,0,1,1,3.014-3.014A3.012,3.012,0,0,1,579.314,817.727Zm0-5.483a2.447,2.447,0,1,0,2.447,2.447A2.451,2.451,0,0,0,579.314,812.244Z" transform="translate(-515.894 -793.033)"/><path class="e" d="M714.524,816.907H658.354a3.354,3.354,0,0,1,0-6.707H714.5a3.354,3.354,0,0,1,.023,6.707Zm-56.171-6.163a2.787,2.787,0,1,0,0,5.574H714.5a2.787,2.787,0,1,0,0-5.574Z" transform="translate(-576.762 -791.873)"/><path class="c" d="M897.525,1048.852A49.112,49.112,0,1,1,843.439,1000l1.631,16.11a32.907,32.907,0,1,0,34.94,23.61l15.566-4.486A48.132,48.132,0,0,1,897.525,1048.852Z" transform="translate(-688.366 -938.667)"/><ellipse class="e" cx="39.653" cy="39.653" rx="39.653" ry="39.653" transform="translate(120.405 70.532)"/><path class="d" d="M880.752,1040.6a39.652,39.652,0,1,0,39.653,39.652A39.667,39.667,0,0,0,880.752,1040.6Zm0,67.749a28.1,28.1,0,1,1,28.1-28.1A28.092,28.092,0,0,1,880.752,1108.349Z" transform="translate(-720.695 -970.068)"/><g transform="translate(205.225 0)"><rect class="f" width="96.644" height="61.333"/><g transform="translate(1.583 1.541)"><g class="n" transform="matrix(1, 0, 0, 1, -210.96, -6)"><path class="g" d="M1395.346,695.32h-67.692a11.564,11.564,0,0,1-11.555-11.555V651.355a11.564,11.564,0,0,1,11.555-11.555h67.692a11.564,11.564,0,0,1,11.555,11.555v32.411A11.539,11.539,0,0,1,1395.346,695.32Z" transform="translate(-1105.14 -633.8)"/></g></g></g><path class="d" d="M1377.493,843.982h0a2.1,2.1,0,0,1-2.094-2.094v-3.495a2.1,2.1,0,0,1,2.094-2.094h0a2.1,2.1,0,0,1,2.094,2.094v3.495A2.1,2.1,0,0,1,1377.493,843.982Z" transform="translate(-1148.015 -799.181)"/><path class="d" d="M1431.793,824.692h0a2.1,2.1,0,0,1-2.094-2.094v-7a2.1,2.1,0,0,1,2.094-2.094h0a2.1,2.1,0,0,1,2.094,2.094v7A2.1,2.1,0,0,1,1431.793,824.692Z" transform="translate(-1193.955 -779.891)"/><path class="d" d="M1486.093,840.428h0a2.1,2.1,0,0,1-2.094-2.094v-4.141a2.1,2.1,0,0,1,2.094-2.094h0a2.1,2.1,0,0,1,2.094,2.094v4.141A2.1,2.1,0,0,1,1486.093,840.428Z" transform="translate(-1239.896 -795.628)"/><path class="d" d="M1540.393,808.363h0a2.1,2.1,0,0,1-2.094-2.094v-9.976a2.1,2.1,0,0,1,2.094-2.094h0a2.1,2.1,0,0,1,2.093,2.094v9.976A2.106,2.106,0,0,1,1540.393,808.363Z" transform="translate(-1285.837 -763.562)"/><path class="d" d="M1594.593,787.8h0a2.1,2.1,0,0,1-2.094-2.094V771.994a2.1,2.1,0,0,1,2.094-2.094h0a2.1,2.1,0,0,1,2.094,2.094V785.71A2.1,2.1,0,0,1,1594.593,787.8Z" transform="translate(-1331.693 -743.003)"/><path class="d" d="M1648.893,758.446h0a2.1,2.1,0,0,1-2.094-2.094V737.294a2.1,2.1,0,0,1,2.094-2.094h0a2.1,2.1,0,0,1,2.094,2.094v19.074A2.093,2.093,0,0,1,1648.893,758.446Z" transform="translate(-1377.634 -713.645)"/><path class="c" d="M1703.193,713.182h0a2.1,2.1,0,0,1-2.094-2.094V683.794a2.1,2.1,0,0,1,2.094-2.094h0a2.1,2.1,0,0,1,2.094,2.094v27.294A2.1,2.1,0,0,1,1703.193,713.182Z" transform="translate(-1423.575 -668.381)"/><path class="d" d="M1377.431,710.509h0a2.023,2.023,0,0,1-2.032-2.031v-.546a2.023,2.023,0,0,1,2.032-2.032h0a2.023,2.023,0,0,1,2.031,2.032v.546A2.023,2.023,0,0,1,1377.431,710.509Z" transform="translate(-1154.044 -691.522)"/><path class="d" d="M1457.281,718.566h-26.3a.586.586,0,0,1-.583-.583h0a.586.586,0,0,1,.583-.583h26.3a.586.586,0,0,1,.583.583h0A.586.586,0,0,1,1457.281,718.566Z" transform="translate(-1198.698 -700.859)"/><g class="m" transform="matrix(1, 0, 0, 1, -4.15, -4.46)"><path class="d" d="M1320.215,1389.211H1286.8c-3.761,0-6.8-2.294-6.8-5.136v-23.539c0-2.842,3.036-5.136,6.8-5.136h33.419c3.761,0,6.8,2.294,6.8,5.136v23.539C1327.012,1386.9,1323.977,1389.211,1320.215,1389.211Z" transform="translate(-1026 -1207.2)"/></g><rect class="e" width="26.329" height="1.881" transform="translate(257.207 155.634)"/><rect class="e" width="26.329" height="1.881" transform="translate(257.207 161.299)"/><path class="d" d="M549.078,1036.151H521.8c-3.761,0-6.8-2.559-6.8-5.73V983.629c0-3.17,3.036-5.73,6.8-5.73h27.281c3.761,0,6.8,2.559,6.8,5.73v46.792C555.876,1033.573,552.84,1036.151,549.078,1036.151Z" transform="translate(-457.2 -932.739)"/><rect class="e" width="26.805" height="24.539" transform="translate(64.031 55.153)"/><rect class="h" width="0.566" height="36.344" transform="translate(63.848 55.385) rotate(-47.525)"/><rect class="h" width="36.344" height="0.566" transform="matrix(0.738, -0.675, 0.675, 0.738, 63.828, 79.522)"/><g transform="translate(0 119.963)"><rect class="f" width="100.387" height="62.506"/><g transform="translate(1.849 1.863)"><g class="l" transform="matrix(1, 0, 0, 1, -6, -126.29)"><path class="i" d="M268.917,1158.15H202.6c-7.5,0-13.6-5.506-13.6-12.28V1114.78c0-6.775,6.1-12.28,13.6-12.28h66.322c7.5,0,13.6,5.506,13.6,12.28v31.089C282.512,1152.644,276.44,1158.15,268.917,1158.15Z" transform="translate(-183 -976.21)"/></g></g></g><path class="d" d="M250.275,1189.163l-12.508-11.76-5.869,11.012-.5-.272,6.208-11.646,12.417,11.646,8.316-24.2,15.68,17.2,9.947-4.056L302.412,1153l.453.34-18.535,24.222-10.468,4.26-.136-.136-15.159-16.654Z" transform="translate(-218.367 -1022.404)"/><ellipse class="c" cx="1.563" cy="1.563" rx="1.563" ry="1.563" transform="translate(17.814 152.938)"/><ellipse class="c" cx="1.563" cy="1.563" rx="1.563" ry="1.563" transform="translate(30.14 164.402)"/><ellipse class="c" cx="1.563" cy="1.563" rx="1.563" ry="1.563" transform="translate(38.614 140.611)"/><rect class="d" width="39.653" height="0.566" transform="translate(30.367 128.965)"/><g transform="translate(2.02 32.365)"><rect class="f" width="52.902" height="50.504"/><g transform="translate(1.307 1.294)"><g class="k" transform="matrix(1, 0, 0, 1, -7.48, -38.12)"><path class="j" d="M366.367,474.718H337.315A9.522,9.522,0,0,1,327.8,465.2V438.515A9.522,9.522,0,0,1,337.315,429h29.052a9.522,9.522,0,0,1,9.515,9.515V465.2A9.522,9.522,0,0,1,366.367,474.718Z" transform="translate(-320.32 -390.88)"/></g></g></g><path class="d" d="M402.807,528.083,398.066,515a13.925,13.925,0,1,0,17.079,6.676Z" transform="translate(-375.883 -467.703)"/><path class="c" d="M475.479,486.1a13.93,13.93,0,0,0-17.079-6.676l4.742,13.083Z" transform="translate(-434.362 -437.076)"/></g></svg>